Coordinates
version=1
nRows=7
nColumns=42
inDegrees=yes

Units are S.I. units (second, meters, Newtons, ...)
If the header above contains a line with 'inDegrees', this indicates whether rotational values are in degrees (yes) or radians (no).

endheader
time	pelvis_tilt	pelvis_list	pelvis_rotation	pelvis_tx	pelvis_ty	pelvis_tz	hip_flexion_r	hip_adduction_r	hip_rotation_r	knee_angle_r	knee_adduction_r	knee_angle_r_beta	ankle_angle_r	subtalar_angle_r	mtp_angle_r	hip_flexion_l	hip_adduction_l	hip_rotation_l	knee_angle_l	knee_adduction_l	knee_angle_l_beta	ankle_angle_l	subtalar_angle_l	mtp_angle_l	lumbar_extension	lumbar_bending	lumbar_rotation	arm_flex_r	arm_add_r	arm_rot_r	elbow_flex_r	pro_sup_r	wrist_flex_r	wrist_dev_r	arm_flex_l	arm_add_l	arm_rot_l	elbow_flex_l	pro_sup_l	wrist_flex_l	wrist_dev_l
      0.55000000	      7.31935103	      1.13946449	     -0.16254701	     -0.60902803	      1.00475720	     -0.26789444	     20.90196059	     -6.14189326	    -10.07093418	     20.73859828	      6.87106216	      0.36195682	      0.74872814	    -10.67268887	     -7.77714697	    -18.93852146	     -2.86097751	     -0.92811271	      7.90772208	     12.04117370	      0.13801579	     14.84086728	      2.72743153	     -7.77714697	    -19.70034037	     -1.75669032	     -3.99837429	     -5.22687558	     -6.12535216	    -16.83132351	      9.53082885	     90.00000001	      0.00000000	      0.00000000	     20.69910484	    -18.76963391	     -3.27604886	     38.45097308	     90.00000001	      0.00000000	      0.00000000
      0.56000000	      7.18976404	      1.20791277	     -0.00111898	     -0.59508549	      1.00205030	     -0.26718068	     20.79281025	     -6.19107149	    -10.86913712	     17.50374055	      7.27765575	      0.30549790	      0.96602555	     -8.89603134	     -7.76733878	    -19.57624125	     -2.91786354	     -1.02384662	      8.15407626	     12.05443789	      0.14231548	     15.32230559	      3.20369493	     -7.76733878	    -19.54659000	     -1.73939856	     -4.14243082	     -5.62766474	     -6.03158052	    -18.30650855	      9.86614713	     90.00000001	      0.00000000	      0.00000000	     21.18598489	    -19.21627759	     -2.74455468	     39.54470283	     90.00000001	      0.00000000	      0.00000000
      0.57000000	      7.00597041	      1.23960797	      0.20891448	     -0.58094099	      0.99923265	     -0.26649974	     20.80769279	     -6.25152085	    -11.78394574	     14.79974513	      7.70648114	      0.25830428	      1.17156129	     -6.90826771	     -7.75186188	    -20.11113849	     -3.05626778	     -1.15425717	      8.51915695	     12.08966797	      0.14868734	     15.80256055	      3.82884384	     -7.75186188	    -19.31800435	     -1.66072054	     -4.32275586	     -5.89587723	     -5.95608918	    -20.34426375	     10.11741926	     90.00000001	      0.00000000	      0.00000000	     21.59140890	    -19.60681174	     -2.33108593	     40.56330542	     90.00000001	      0.00000000	      0.00000000
      0.58000000	      6.61028377	      1.55209520	      0.35291655	     -0.56698574	      0.99616103	     -0.26602383	     21.18874023	     -6.66085438	    -12.17639619	     12.67968057	      8.30608359	      0.22130217	      1.22073678	     -5.59902279	     -7.74757783	    -20.34133754	     -2.80316127	     -1.02273794	      8.97007511	     12.01425776	      0.15655734	     16.09720859	      4.00347447	     -7.74757783	    -18.88013786	     -1.87943764	     -4.55544022	     -6.43751306	     -5.89007088	    -21.00198750	     10.95004617	     90.00000001	      0.00000000	      0.00000000	     21.93756842	    -19.91763723	     -2.21847322	     41.46755115	     90.00000001	      0.00000000	      0.00000000
      0.59000000	      6.67396788	      1.42017883	      0.63755477	     -0.55243244	      0.99374453	     -0.26525016	     20.97268309	     -6.55993154	    -12.95453347	     10.95818557	      8.68116181	      0.19125642	      1.56476882	     -3.81469457	     -7.73440297	    -21.13309091	     -3.19603436	     -1.00345201	      9.37923753	     12.09140397	      0.16369858	     16.42106618	      4.55650347	     -7.73440297	    -18.91580841	     -1.60337045	     -4.76455558	     -6.64595488	     -5.82159392	    -22.80509954	     11.14770458	     90.00000001	      0.00000000	      0.00000000	     22.12921871	    -20.31079734	     -1.79814249	     42.57143385	     90.00000001	      0.00000000	      0.00000000
      0.60000000	      6.44578940	      1.56707206	      0.84827162	     -0.53816694	      0.99104489	     -0.26476905	     21.24271026	     -6.75244849	    -13.04848233	      9.88236689	      9.04677365	      0.17247984	      1.69064201	     -2.91299271	     -7.72993530	    -21.48854183	     -3.17423910	     -0.72226854	      9.94465783	     12.02032313	      0.17356702	     16.58458554	      4.67484503	     -7.72993530	    -18.65986153	     -1.60478642	     -5.01645126	     -7.09788102	     -5.76405741	    -23.38383785	     11.67455039	     90.00000001	      0.00000000	      0.00000000	     22.27805584	    -20.55415408	     -1.79247511	     43.46200324	     90.00000001	      0.00000000	      0.00000000
      0.61000000	      6.39477656	      1.40342815	      1.13021509	     -0.52346276	      0.98868905	     -0.26417271	     21.30450826	     -6.60032919	    -13.29231973	      9.34081117	      9.23689232	      0.16302791	      1.88638436	     -1.96320049	     -7.71933661	    -22.03805229	     -3.56874657	     -0.48866621	     10.54571006	     12.01391006	      0.18405736	     16.71517985	      4.99373602	     -7.71933661	    -18.55781786	     -1.24548240	     -5.25397091	     -7.35885125	     -5.72892233	    -24.36132139	     11.67677656	     90.00000001	      0.00000000	      0.00000000	     22.25461261	    -20.80388240	     -1.69562009	     44.39691627	     90.00000001	      0.00000000	      0.00000000
